<?xml version="1.0" encoding="UTF-8"?>
<svg width="656.80536" height="591.75153" xmlns="http://www.w3.org/2000/svg" xmlns:svg="http://www.w3.org/2000/svg">
 <title>Carrinho de supermercado Canes</title>
 <metadata id="metadata7">image/svg+xmlMarket Basket27.06.2007Jakub Klawiter</metadata>
 <g>
  <title>Layer 1</title>
  <g id="svg_13">
   <g id="svg_14" transform="matrix(0.547803,0,0,0.547803,165.303,314.126) ">
    <path id="svg_15" fill="#000000" fill-rule="nonzero" stroke-width="30" stroke-linecap="round" stroke-linejoin="round" stroke-miterlimit="4" stroke-dashoffset="0" d="m-23.18466,376.52658c190.44743,-82.02435 519.48773,-59.39694 692.96463,53.74017c63.16815,-78.25317 41.48358,-266.81497 -31.11267,-288.4996c49.96887,-191.39023 -49.96888,-600.56934 192.33301,-613.76868c97.10931,103.70902 157.44903,-126.33636 2.82843,-70.71063c-319.58283,30.76956 -208.15571,428.5828 -282.84278,664.6803c-267.75772,-58.45415 -716.53482,69.76788 -625.08236,141.42136c265.87216,-71.65346 593.96969,-157.44909 712.7637,87.68127c-131.99332,-131.99327 -620.36838,-108.42305 -661.85196,25.45581z"/>
    <g id="svg_16" fill="#000000">
     <path id="svg_17" fill="#000000" fill-rule="nonzero" stroke-width="30" stroke-linecap="round" stroke-linejoin="round" stroke-miterlimit="4" stroke-dashoffset="0" d="m-3.38567,133.28189c-212.13205,-178.19093 -690.58497,-697.5029 574.1707,-444.06305c-930.55255,-50.91168 -808.9301,28.28424 -574.1707,444.06305z"/>
     <path id="svg_18" fill="#000000" fill-rule="nonzero" stroke-width="30" stroke-linecap="round" stroke-linejoin="round" stroke-miterlimit="4" stroke-dashoffset="0" d="m-161.778,-149.561c207.4184,-68.825 457.26299,-95.224 684.48003,-50.91201c-214.01804,-15.084 -461.97663,37.71301 -661.85202,104.65231c-7.543,-17.9133 -15.08501,-35.8263 -22.62801,-53.7403l0,0z"/>
     <path id="svg_19" fill="#000000" fill-rule="nonzero" stroke-width="30" stroke-linecap="round" stroke-linejoin="round" stroke-miterlimit="4" stroke-dashoffset="0" d="m-93.8953,-19.4532c10.3709,19.799 20.7418,39.598 31.1127,59.397c140.4785,-90.5097 334.69761,-130.1077 534.57261,-118.794c-148.021,-76.3678 -335.64002,-48.0828 -565.68531,59.397l0,0z"/>
     <path id="svg_20" fill="#000000" fill-rule="nonzero" stroke-width="30" stroke-linecap="round" stroke-linejoin="round" stroke-miterlimit="4" stroke-dashoffset="0" d="m-150.464,-293.81101c27.342,-12.25598 54.683,-24.51299 82.0245,-36.76898c118.7939,143.30699 181.0195,292.27059 220.61749,446.89099c-75.42489,-145.1923 -159.3349,-276.24301 -302.64199,-410.12201l0,0z"/>
     <path id="svg_21" fill="#000000" fill-rule="nonzero" stroke-width="30" stroke-linecap="round" stroke-linejoin="round" stroke-miterlimit="4" stroke-dashoffset="0" d="m19.2418,-344.72199c23.5702,-0.94302 47.1404,-1.88601 70.7106,-2.82901c107.4806,130.10801 152.7346,263.044 152.7346,398.8085c-40.54,-131.9933 -103.709,-263.9865 -223.4453,-395.97949l0.0001,0z"/>
     <path id="svg_22" fill="#000000" fill-rule="nonzero" stroke-width="30" stroke-linecap="round" stroke-linejoin="round" stroke-miterlimit="4" stroke-dashoffset="0" d="m217.23164,-341.89389c22.62744,0.94281 45.25484,1.88562 67.88225,2.82843c43.3692,112.19431 75.42468,218.7317 70.71063,336.58285c-15.0849,-118.79393 -69.76782,-223.44575 -138.59288,-339.41128z"/>
    </g>
    <path id="svg_23" fill="#000000" fill-rule="nonzero" stroke="#fffdff" stroke-width="9.127374" stroke-linecap="round" stroke-linejoin="round" stroke-miterlimit="4" stroke-dashoffset="0" d="m39.5504,328.13199c-17.0184,0.24402 -32.89544,5.086 -45.62504,14.96802c-37.03156,28.74899 -33.57506,89.26098 7.71875,135.09399c41.29389,45.83298 104.87489,59.71701 141.90589,30.969c37.032,-28.74799 33.57601,-89.292 -7.718,-135.125c-27.099,-30.07801 -63.7921,-46.37201 -96.2816,-45.90601l0,0zm29.1249,57.406c14.227,-0.22 30.2898,7.499 42.1567,21.68702c18.082,21.62198 19.622,50.15698 3.406,63.71899c-16.216,13.56201 -44.0741,7.02799 -62.1564,-14.59399c-18.0823,-21.62101 -19.5909,-50.18802 -3.375,-63.75c5.5742,-4.66101 12.5165,-6.94699 19.9687,-7.06202z"/>
    <path id="svg_24" fill="#000000" fill-rule="nonzero" stroke="#fffdff" stroke-width="9.127374" stroke-linecap="round" stroke-linejoin="round" stroke-miterlimit="4" stroke-dashoffset="0" d="m544.42596,328.13174c-17.01837,0.24384 -32.89544,5.08643 -45.625,14.96875c-37.03155,28.74842 -33.57513,89.26081 7.71875,135.09375c41.29389,45.83292 104.8747,59.7172 141.90625,30.96879c37.0315,-28.74851 33.57514,-89.29215 -7.71875,-135.12504c-27.09912,-30.07788 -63.79168,-46.37176 -96.28125,-45.90625zm29.125,57.40625c14.22693,-0.2196 30.28968,7.4986 42.15625,21.6875c18.08228,21.62116 19.62213,50.15699 3.40625,63.71875c-16.21588,13.56171 -44.07391,7.02741 -62.15625,-14.59375c-18.08233,-21.62121 -19.59088,-50.18829 -3.375,-63.75c5.57422,-4.66186 12.51654,-6.94751 19.96875,-7.0625z"/>
   </g>
  </g>
  <g id="svg_1">
   <g id="svg_2" transform="matrix(0.547803,0,0,0.547803,165.303,314.126) ">
    <path id="svg_3" fill="#ff7200" fill-rule="nonzero" stroke-width="30" stroke-linecap="round" stroke-linejoin="round" stroke-miterlimit="4" stroke-dashoffset="0" d="m-43.2649,367.39899c190.4479,-82.02399 519.48789,-59.39698 692.96491,53.74002c63.16797,-78.25302 41.48297,-266.815 -31.11303,-288.49901c49.96905,-191.3905 -49.969,-600.56999 192.333,-613.769c97.10901,103.70899 157.44904,-126.33603 2.82801,-70.71103c-319.58201,30.77002 -208.15497,428.58303 -282.84198,664.68103c-267.758,-58.4544 -716.53501,69.76799 -625.08261,141.42099c265.8726,-71.653 593.9696,-157.44899 712.76358,87.681c-131.99299,-131.99299 -620.36826,-108.42299 -661.85188,25.456l0,0z"/>
    <g id="svg_4" fill="#000000">
     <path id="svg_5" fill="#ff7200" fill-rule="nonzero" stroke-width="30" stroke-linecap="round" stroke-linejoin="round" stroke-miterlimit="4" stroke-dashoffset="0" d="m-23.46587,124.15447c-212.13205,-178.19092 -690.58497,-697.50292 574.1707,-444.06304c-930.55255,-50.91168 -808.93011,28.28424 -574.1707,444.06304z"/>
     <path id="svg_6" fill="#ff7200" fill-rule="nonzero" stroke-width="30" stroke-linecap="round" stroke-linejoin="round" stroke-miterlimit="4" stroke-dashoffset="0" d="m-181.858,-158.688c207.4182,-68.825 457.263,-95.224 684.48001,-50.91201c-214.01801,-15.08499 -461.97681,37.71201 -661.85201,104.65201c-7.54299,-17.914 -15.085,-35.827 -22.628,-53.74l0,0z"/>
     <path id="svg_7" fill="#ff7200" fill-rule="nonzero" stroke-width="30" stroke-linecap="round" stroke-linejoin="round" stroke-miterlimit="4" stroke-dashoffset="0" d="m-113.976,-28.5806c10.371,19.79899 20.7423,39.598 31.1132,59.397c140.4785,-90.5097 334.6968,-130.1077 534.57279,-118.794c-148.02099,-76.3674 -335.63999,-48.08341 -565.68599,59.397l0,0z"/>
     <path id="svg_8" fill="#ff7200" fill-rule="nonzero" stroke-width="30" stroke-linecap="round" stroke-linejoin="round" stroke-miterlimit="4" stroke-dashoffset="0" d="m-170.54401,-302.93799c27.34101,-12.25702 54.68301,-24.513 82.02431,-36.77002c118.7939,143.30701 181.0193,292.27121 220.61771,446.89201c-75.42511,-145.1927 -159.33511,-276.24301 -302.64202,-410.12199l0,0z"/>
     <path id="svg_9" fill="#ff7200" fill-rule="nonzero" stroke-width="30" stroke-linecap="round" stroke-linejoin="round" stroke-miterlimit="4" stroke-dashoffset="0" d="m-0.83846,-353.84973c23.57023,-0.94281 47.14045,-1.88559 70.71067,-2.8284c107.48025,130.10763 152.73507,263.04373 152.73507,398.80823c-40.54077,-131.99327 -103.70901,-263.98655 -223.44574,-395.97983z"/>
     <path id="svg_10" fill="#ff7200" fill-rule="nonzero" stroke-width="30" stroke-linecap="round" stroke-linejoin="round" stroke-miterlimit="4" stroke-dashoffset="0" d="m197.15144,-351.0213c22.62744,0.94281 45.25482,1.88562 67.88225,2.82843c43.3692,112.1943 75.42468,218.73172 70.71063,336.58285c-15.0849,-118.79393 -69.76782,-223.44577 -138.59288,-339.41128z"/>
    </g>
    <path id="svg_11" fill="#ff7200" fill-rule="nonzero" stroke="#fffdff" stroke-width="9.127374" stroke-linecap="round" stroke-linejoin="round" stroke-miterlimit="4" stroke-dashoffset="0" d="m19.47015,319.00433c-17.01834,0.24384 -32.8954,5.08643 -45.625,14.96875c-37.03153,28.74842 -33.57511,89.26081 7.71875,135.09375c41.2939,45.83289 104.87471,59.71717 141.90624,30.96875c37.03155,-28.74847 33.57519,-89.29211 -7.71875,-135.125c-27.09909,-30.07788 -63.79166,-46.37176 -96.28124,-45.90625zm29.12499,57.40625c14.22699,-0.2196 30.28973,7.4986 42.15625,21.6875c18.08233,21.62116 19.62213,50.15698 3.40625,63.71875c-16.21585,13.56171 -44.07392,7.02741 -62.15624,-14.59375c-18.08233,-21.62121 -19.59086,-50.18829 -3.375,-63.75c5.57422,-4.66186 12.51653,-6.94751 19.96874,-7.0625z"/>
    <path stroke="#fffdff" id="svg_12" fill="#ff7200" fill-rule="nonzero" stroke-width="9.127374" stroke-linecap="round" stroke-linejoin="round" stroke-miterlimit="4" stroke-dashoffset="0" d="m524.34576,319.00433c-17.01837,0.24384 -32.89544,5.08643 -45.625,14.96875c-37.03155,28.74842 -33.57513,89.26081 7.71875,135.09375c41.29389,45.83289 104.8747,59.71717 141.90625,30.96875c37.0315,-28.74847 33.57514,-89.29211 -7.71875,-135.125c-27.09912,-30.07788 -63.79168,-46.37176 -96.28125,-45.90625zm29.125,57.40625c14.22693,-0.2196 30.28968,7.4986 42.15625,21.6875c18.08228,21.62116 19.62213,50.15698 3.40625,63.71875c-16.21588,13.56171 -44.07391,7.02741 -62.15625,-14.59375c-18.08233,-21.62121 -19.59088,-50.18829 -3.375,-63.75c5.57422,-4.66186 12.51654,-6.94751 19.96875,-7.0625z"/>
   </g>
  </g>
  <g id="layer1">
   <g transform="matrix(0.551139,0,0,0.558029,162.31,319.99) " id="g3257">
    <path fill="#008dff" fill-rule="nonzero" stroke-width="30" stroke-linecap="round" stroke-linejoin="round" stroke-miterlimit="4" stroke-dashoffset="0" d="m-58.451352,357.209267c190.44743,-82.02435 519.4878,-59.39694 692.96464,53.74017c63.16821,-78.25317 41.48358,-266.81497 -31.11267,-288.4996c49.96893,-191.39021 -49.96887,-600.56934 192.33301,-613.76868c97.10937,103.70902 157.44909,-126.33639 2.82843,-70.71066c-319.58274,30.76959 -208.15571,428.58285 -282.84272,664.68036c-267.75772,-58.45415 -716.53482,69.76788 -625.08237,141.42135c265.87215,-71.65347 593.96973,-157.44909 712.76365,87.68125c-131.99326,-131.99326 -620.36832,-108.42304 -661.85197,25.45581z" id="path3176"/>
    <g fill="#000000" id="g3249">
     <path fill="#008dff" fill-rule="nonzero" stroke-width="30" stroke-linecap="round" stroke-linejoin="round" stroke-miterlimit="4" stroke-dashoffset="0" id="path3202" d="m-38.652362,113.964577c-212.13205,-178.19092 -690.58496,-697.50293 574.17071,-444.06305c-930.55255,-50.91168 -808.93011,28.28424 -574.17071,444.06305z"/>
     <path fill="#008dff" fill-rule="nonzero" stroke-width="30" stroke-linecap="round" stroke-linejoin="round" stroke-miterlimit="4" stroke-dashoffset="0" id="path3204" d="m-197.044662,-168.878513c207.4184,-68.82502 457.263,-95.22301 684.48001,-50.91102c-214.01801,-15.08499 -461.97671,37.71201 -661.85201,104.65101c-7.543,-17.913 -15.08501,-35.82599 -22.628,-53.73999l0,0z"/>
     <path fill="#008dff" fill-rule="nonzero" stroke-width="30" stroke-linecap="round" stroke-linejoin="round" stroke-miterlimit="4" stroke-dashoffset="0" id="path3206" d="m-129.161662,-38.770523c10.371,19.799 20.741,39.59801 31.1123,59.397c140.4786,-90.5097 334.6977,-130.108 534.57269,-118.794c-148.021,-76.367 -335.63999,-48.08301 -565.68499,59.397l0,0z"/>
     <path fill="#008dff" fill-rule="nonzero" stroke-width="30" stroke-linecap="round" stroke-linejoin="round" stroke-miterlimit="4" stroke-dashoffset="0" id="path3208" d="m-185.730562,-313.127923c27.34146,-12.25653 54.68291,-24.51303 82.02438,-36.76956c118.79393,143.30697 181.01935,292.27081 220.61731,446.89148c-75.42473,-145.19258 -159.33473,-276.24305 -302.64169,-410.12192z"/>
     <path fill="#008dff" fill-rule="nonzero" stroke-width="30" stroke-linecap="round" stroke-linejoin="round" stroke-miterlimit="4" stroke-dashoffset="0" id="path3210" d="m-16.024942,-364.039633c23.57023,-0.94281 47.14045,-1.88559 70.71068,-2.8284c107.48023,130.10765 152.73503,263.04373 152.73503,398.80822c-40.54077,-131.99328 -103.70898,-263.98654 -223.44571,-395.97982z"/>
     <path fill="#008dff" fill-rule="nonzero" stroke-width="30" stroke-linecap="round" stroke-linejoin="round" stroke-miterlimit="4" stroke-dashoffset="0" id="path3212" d="m181.964948,-361.211203c22.62744,0.94281 45.25485,1.88562 67.88226,2.82843c43.3692,112.1943 75.42471,218.73172 70.71066,336.58285c-15.08493,-118.79394 -69.76785,-223.44575 -138.59292,-339.41128z"/>
    </g>
    <path fill="#008dff" fill-rule="nonzero" stroke="#fffdff" stroke-width="9.127374" stroke-linecap="round" stroke-linejoin="round" stroke-miterlimit="4" stroke-dashoffset="0" d="m4.283668,308.814427c-17.01834,0.24384 -32.8954,5.08643 -45.625,14.96875c-37.03154,28.74842 -33.57512,89.26081 7.71875,135.09375c41.2939,45.83289 104.87471,59.71717 141.90624,30.96875c37.03152,-28.74847 33.57516,-89.29211 -7.71875,-135.125c-27.09911,-30.07788 -63.79167,-46.37176 -96.28124,-45.90625zm29.125,57.40625c14.22697,-0.2196 30.28973,7.4986 42.15625,21.6875c18.08232,21.62116 19.62213,50.15698 3.40625,63.71875c-16.21587,13.56171 -44.07392,7.02741 -62.15625,-14.59375c-18.08233,-21.62121 -19.59087,-50.18829 -3.375,-63.75c5.57422,-4.66186 12.51654,-6.94751 19.96875,-7.0625z" id="path3234"/>
    <path fill="#008dff" fill-rule="nonzero" stroke="#fffdff" stroke-width="9.127374" stroke-linecap="round" stroke-linejoin="round" stroke-miterlimit="4" stroke-dashoffset="0" d="m509.159278,308.814427c-17.01837,0.24384 -32.89544,5.08643 -45.625,14.96875c-37.03155,28.74842 -33.57513,89.26081 7.71875,135.09375c41.29389,45.83289 104.8747,59.71717 141.90625,30.96875c37.0315,-28.74847 33.57514,-89.29211 -7.71875,-135.125c-27.09912,-30.07788 -63.79168,-46.37176 -96.28125,-45.90625zm29.125,57.40625c14.22693,-0.2196 30.28968,7.4986 42.15625,21.6875c18.08228,21.62116 19.62214,50.15698 3.40625,63.71875c-16.21588,13.56171 -44.07391,7.02741 -62.15625,-14.59375c-18.08233,-21.62121 -19.59088,-50.18829 -3.375,-63.75c5.57422,-4.66186 12.51655,-6.94751 19.96875,-7.0625z" id="path3243"/>
   </g>
  </g>
 </g>
</svg>