<?xml version="1.0" encoding="UTF-8" standalone="no"?>
<svg
   xmlns:dc="http://purl.org/dc/elements/1.1/"
   xmlns:cc="http://creativecommons.org/ns#"
   xmlns:rdf="http://www.w3.org/1999/02/22-rdf-syntax-ns#"
   xmlns:svg="http://www.w3.org/2000/svg"
   xmlns="http://www.w3.org/2000/svg"
   xmlns:sodipodi="http://sodipodi.sourceforge.net/DTD/sodipodi-0.dtd"
   xmlns:inkscape="http://www.inkscape.org/namespaces/inkscape"
   width="656.80536"
   height="591.75153"
   version="1.1"
   id="svg907"
   sodipodi:docname="carrinho.svg"
   inkscape:version="0.92.4 (5da689c313, 2019-01-14)">
  <defs
     id="defs911" />
  <sodipodi:namedview
     pagecolor="#ffffff"
     bordercolor="#666666"
     borderopacity="1"
     objecttolerance="10"
     gridtolerance="10"
     guidetolerance="10"
     inkscape:pageopacity="0"
     inkscape:pageshadow="2"
     inkscape:window-width="1366"
     inkscape:window-height="705"
     id="namedview909"
     showgrid="false"
     inkscape:zoom="0.35931497"
     inkscape:cx="328.40268"
     inkscape:cy="295.87576"
     inkscape:window-x="-8"
     inkscape:window-y="-8"
     inkscape:window-maximized="1"
     inkscape:current-layer="svg907" />
  <title
     id="title864">Carrinho de supermercado Canes</title>
  <metadata
     id="metadata7">image/svg+xmlMarket Basket27.06.2007Jakub Klawiter<rdf:RDF>
  <cc:Work
     rdf:about="">
    <dc:format>image/svg+xml</dc:format>
    <dc:type
       rdf:resource="http://purl.org/dc/dcmitype/StillImage" />
  </cc:Work>
</rdf:RDF>
</metadata>
  <g
     id="svg_13">
    <g
       transform="matrix(0.547803,0,0,0.547803,165.303,314.126)"
       id="svg_14">
      <path
         style="fill:#000000;fill-rule:nonzero;stroke-width:30;stroke-linecap:round;stroke-linejoin:round;stroke-miterlimit:4;stroke-dashoffset:0"
         inkscape:connector-curvature="0"
         d="m -23.18466,376.52658 c 190.44743,-82.02435 519.48773,-59.39694 692.96463,53.74017 63.16815,-78.25317 41.48358,-266.81497 -31.11267,-288.4996 49.96887,-191.39023 -49.96888,-600.56934 192.33301,-613.76868 97.10931,103.70902 157.44903,-126.33636 2.82843,-70.71063 -319.58283,30.76956 -208.15571,428.5828 -282.84278,664.6803 C 283.22824,63.51399 -165.54886,191.73602 -74.0964,263.3895 191.77576,191.73604 519.87329,105.94041 638.6673,351.07077 506.67398,219.0775 18.29892,242.64772 -23.18466,376.52658 Z"
         stroke-miterlimit="4"
         id="svg_15" />
      <g
         style="fill:#000000"
         id="svg_16">
        <path
           style="fill:#000000;fill-rule:nonzero;stroke-width:30;stroke-linecap:round;stroke-linejoin:round;stroke-miterlimit:4;stroke-dashoffset:0"
           inkscape:connector-curvature="0"
           d="m -3.38567,133.28189 c -212.13205,-178.19093 -690.58497,-697.5029 574.1707,-444.06305 -930.55255,-50.91168 -808.9301,28.28424 -574.1707,444.06305 z"
           stroke-miterlimit="4"
           id="svg_17" />
        <path
           style="fill:#000000;fill-rule:nonzero;stroke-width:30;stroke-linecap:round;stroke-linejoin:round;stroke-miterlimit:4;stroke-dashoffset:0"
           inkscape:connector-curvature="0"
           d="m -161.778,-149.561 c 207.4184,-68.825 457.26299,-95.224 684.48003,-50.91201 -214.01804,-15.084 -461.97663,37.71301 -661.85202,104.65231 -7.543,-17.9133 -15.08501,-35.8263 -22.62801,-53.7403 z"
           stroke-miterlimit="4"
           id="svg_18" />
        <path
           style="fill:#000000;fill-rule:nonzero;stroke-width:30;stroke-linecap:round;stroke-linejoin:round;stroke-miterlimit:4;stroke-dashoffset:0"
           inkscape:connector-curvature="0"
           d="m -93.8953,-19.4532 c 10.3709,19.799 20.7418,39.598 31.1127,59.397 140.4785,-90.5097 334.69761,-130.1077 534.57261,-118.794 -148.021,-76.3678 -335.64002,-48.0828 -565.68531,59.397 z"
           stroke-miterlimit="4"
           id="svg_19" />
        <path
           style="fill:#000000;fill-rule:nonzero;stroke-width:30;stroke-linecap:round;stroke-linejoin:round;stroke-miterlimit:4;stroke-dashoffset:0"
           inkscape:connector-curvature="0"
           d="m -150.464,-293.81101 c 27.342,-12.25598 54.683,-24.51299 82.0245,-36.76898 C 50.3544,-187.273 112.58,-38.3094 152.17799,116.311 76.7531,-28.8813 -7.15691,-159.93201 -150.464,-293.81101 Z"
           stroke-miterlimit="4"
           id="svg_20" />
        <path
           style="fill:#000000;fill-rule:nonzero;stroke-width:30;stroke-linecap:round;stroke-linejoin:round;stroke-miterlimit:4;stroke-dashoffset:0"
           inkscape:connector-curvature="0"
           d="M 19.2418,-344.72199 C 42.812,-345.66501 66.3822,-346.608 89.9524,-347.551 197.433,-217.44299 242.687,-84.507 242.687,51.2575 202.147,-80.7358 138.978,-212.729 19.2417,-344.72199 Z"
           stroke-miterlimit="4"
           id="svg_21" />
        <path
           style="fill:#000000;fill-rule:nonzero;stroke-width:30;stroke-linecap:round;stroke-linejoin:round;stroke-miterlimit:4;stroke-dashoffset:0"
           inkscape:connector-curvature="0"
           d="m 217.23164,-341.89389 c 22.62744,0.94281 45.25484,1.88562 67.88225,2.82843 43.3692,112.19431 75.42468,218.7317 70.71063,336.58285 -15.0849,-118.79393 -69.76782,-223.44575 -138.59288,-339.41128 z"
           stroke-miterlimit="4"
           id="svg_22" />
      </g>
      <path
         style="fill:#000000;fill-rule:nonzero;stroke:#fffdff;stroke-width:9.1273737;stroke-linecap:round;stroke-linejoin:round;stroke-miterlimit:4;stroke-dashoffset:0"
         inkscape:connector-curvature="0"
         d="M 39.5504,328.13199 C 22.532,328.37601 6.65496,333.21799 -6.07464,343.10001 -43.1062,371.849 -39.6497,432.36099 1.64411,478.194 42.938,524.02698 106.519,537.91101 143.55,509.163 180.582,480.41501 177.12601,419.871 135.832,374.038 108.733,343.95999 72.0399,327.66599 39.5504,328.13199 Z m 29.1249,57.406 c 14.227,-0.22 30.2898,7.499 42.1567,21.68702 18.082,21.62198 19.622,50.15698 3.406,63.71899 -16.216,13.56201 -44.0741,7.02799 -62.1564,-14.59399 -18.0823,-21.62101 -19.5909,-50.18802 -3.375,-63.75 5.5742,-4.66101 12.5165,-6.94699 19.9687,-7.06202 z"
         stroke-miterlimit="4"
         id="svg_23" />
      <path
         style="fill:#000000;fill-rule:nonzero;stroke:#fffdff;stroke-width:9.1273737;stroke-linecap:round;stroke-linejoin:round;stroke-miterlimit:4;stroke-dashoffset:0"
         inkscape:connector-curvature="0"
         d="m 544.42596,328.13174 c -17.01837,0.24384 -32.89544,5.08643 -45.625,14.96875 -37.03155,28.74842 -33.57513,89.26081 7.71875,135.09375 41.29389,45.83292 104.8747,59.7172 141.90625,30.96879 37.0315,-28.74851 33.57514,-89.29215 -7.71875,-135.12504 -27.09912,-30.07788 -63.79168,-46.37176 -96.28125,-45.90625 z m 29.125,57.40625 c 14.22693,-0.2196 30.28968,7.4986 42.15625,21.6875 18.08228,21.62116 19.62213,50.15699 3.40625,63.71875 -16.21588,13.56171 -44.07391,7.02741 -62.15625,-14.59375 -18.08233,-21.62121 -19.59088,-50.18829 -3.375,-63.75 5.57422,-4.66186 12.51654,-6.94751 19.96875,-7.0625 z"
         stroke-miterlimit="4"
         id="svg_24" />
    </g>
  </g>
  <g
     id="svg_1">
    <g
       transform="matrix(0.547803,0,0,0.547803,165.303,314.126)"
       id="svg_2">
      <path
         style="fill:#ff7200;fill-rule:nonzero;stroke-width:30;stroke-linecap:round;stroke-linejoin:round;stroke-miterlimit:4;stroke-dashoffset:0"
         inkscape:connector-curvature="0"
         d="M -43.2649,367.39899 C 147.183,285.375 476.22299,308.00201 649.70001,421.13901 712.86798,342.88599 691.18298,154.32401 618.58698,132.64 c 49.96905,-191.3905 -49.969,-600.56999 192.333,-613.769 97.10901,103.70899 157.44904,-126.33603 2.82801,-70.71103 C 494.16598,-521.07001 605.59302,-123.257 530.90601,112.841 263.14801,54.3866 -185.629,182.60899 -94.1766,254.26199 171.696,182.60899 499.793,96.813 618.58698,341.94299 486.59399,209.95 -1.78128,233.52 -43.2649,367.39899 Z"
         stroke-miterlimit="4"
         id="svg_3" />
      <g
         style="fill:#000000"
         id="svg_4">
        <path
           style="fill:#ff7200;fill-rule:nonzero;stroke-width:30;stroke-linecap:round;stroke-linejoin:round;stroke-miterlimit:4;stroke-dashoffset:0"
           inkscape:connector-curvature="0"
           d="m -23.46587,124.15447 c -212.13205,-178.19092 -690.58497,-697.50292 574.1707,-444.06304 -930.55255,-50.91168 -808.93011,28.28424 -574.1707,444.06304 z"
           stroke-miterlimit="4"
           id="svg_5" />
        <path
           style="fill:#ff7200;fill-rule:nonzero;stroke-width:30;stroke-linecap:round;stroke-linejoin:round;stroke-miterlimit:4;stroke-dashoffset:0"
           inkscape:connector-curvature="0"
           d="M -181.858,-158.688 C 25.5602,-227.513 275.405,-253.912 502.62201,-209.60001 288.604,-224.685 40.6452,-171.888 -159.23,-104.948 c -7.54299,-17.914 -15.085,-35.827 -22.628,-53.74 z"
           stroke-miterlimit="4"
           id="svg_6" />
        <path
           style="fill:#ff7200;fill-rule:nonzero;stroke-width:30;stroke-linecap:round;stroke-linejoin:round;stroke-miterlimit:4;stroke-dashoffset:0"
           inkscape:connector-curvature="0"
           d="m -113.976,-28.5806 c 10.371,19.79899 20.7423,39.598 31.1132,59.397 C 57.6157,-59.6933 251.834,-99.2913 451.70999,-87.9776 303.689,-164.345 116.07,-136.06101 -113.976,-28.5806 Z"
           stroke-miterlimit="4"
           id="svg_7" />
        <path
           style="fill:#ff7200;fill-rule:nonzero;stroke-width:30;stroke-linecap:round;stroke-linejoin:round;stroke-miterlimit:4;stroke-dashoffset:0"
           inkscape:connector-curvature="0"
           d="m -170.54401,-302.93799 c 27.34101,-12.25702 54.68301,-24.513 82.02431,-36.77002 C 30.2742,-196.401 92.4996,-47.4368 132.09801,107.184 56.6729,-38.0087 -27.2371,-169.05901 -170.54401,-302.93799 Z"
           stroke-miterlimit="4"
           id="svg_8" />
        <path
           style="fill:#ff7200;fill-rule:nonzero;stroke-width:30;stroke-linecap:round;stroke-linejoin:round;stroke-miterlimit:4;stroke-dashoffset:0"
           inkscape:connector-curvature="0"
           d="m -0.83846,-353.84973 c 23.57023,-0.94281 47.14045,-1.88559 70.71067,-2.8284 C 177.35246,-226.5705 222.60728,-93.6344 222.60728,42.1301 182.06651,-89.86317 118.89827,-221.85645 -0.83846,-353.84973 Z"
           stroke-miterlimit="4"
           id="svg_9" />
        <path
           style="fill:#ff7200;fill-rule:nonzero;stroke-width:30;stroke-linecap:round;stroke-linejoin:round;stroke-miterlimit:4;stroke-dashoffset:0"
           inkscape:connector-curvature="0"
           d="m 197.15144,-351.0213 c 22.62744,0.94281 45.25482,1.88562 67.88225,2.82843 43.3692,112.1943 75.42468,218.73172 70.71063,336.58285 -15.0849,-118.79393 -69.76782,-223.44577 -138.59288,-339.41128 z"
           stroke-miterlimit="4"
           id="svg_10" />
      </g>
      <path
         style="fill:#ff7200;fill-rule:nonzero;stroke:#fffdff;stroke-width:9.1273737;stroke-linecap:round;stroke-linejoin:round;stroke-miterlimit:4;stroke-dashoffset:0"
         inkscape:connector-curvature="0"
         d="m 19.47015,319.00433 c -17.01834,0.24384 -32.8954,5.08643 -45.625,14.96875 -37.03153,28.74842 -33.57511,89.26081 7.71875,135.09375 41.2939,45.83289 104.87471,59.71717 141.90624,30.96875 37.03155,-28.74847 33.57519,-89.29211 -7.71875,-135.125 C 88.6523,334.8327 51.95973,318.53882 19.47015,319.00433 Z m 29.12499,57.40625 c 14.22699,-0.2196 30.28973,7.4986 42.15625,21.6875 18.08233,21.62116 19.62213,50.15698 3.40625,63.71875 -16.21585,13.56171 -44.07392,7.02741 -62.15624,-14.59375 -18.08233,-21.62121 -19.59086,-50.18829 -3.375,-63.75 5.57422,-4.66186 12.51653,-6.94751 19.96874,-7.0625 z"
         stroke-miterlimit="4"
         id="svg_11" />
      <path
         style="fill:#ff7200;fill-rule:nonzero;stroke:#fffdff;stroke-width:9.1273737;stroke-linecap:round;stroke-linejoin:round;stroke-miterlimit:4;stroke-dashoffset:0"
         inkscape:connector-curvature="0"
         d="m 524.34576,319.00433 c -17.01837,0.24384 -32.89544,5.08643 -45.625,14.96875 -37.03155,28.74842 -33.57513,89.26081 7.71875,135.09375 41.29389,45.83289 104.8747,59.71717 141.90625,30.96875 37.0315,-28.74847 33.57514,-89.29211 -7.71875,-135.125 -27.09912,-30.07788 -63.79168,-46.37176 -96.28125,-45.90625 z m 29.125,57.40625 c 14.22693,-0.2196 30.28968,7.4986 42.15625,21.6875 18.08228,21.62116 19.62213,50.15698 3.40625,63.71875 -16.21588,13.56171 -44.07391,7.02741 -62.15625,-14.59375 -18.08233,-21.62121 -19.59088,-50.18829 -3.375,-63.75 5.57422,-4.66186 12.51654,-6.94751 19.96875,-7.0625 z"
         stroke-miterlimit="4"
         id="svg_12" />
    </g>
  </g>
  <g
     id="layer1"
     style="fill:#ffff00">
    <g
       id="g3257"
       transform="matrix(0.551139,0,0,0.558029,162.31,319.99)"
       style="fill:#ffff00">
      <path
         style="fill:#ffff00;fill-rule:nonzero;stroke-width:30;stroke-linecap:round;stroke-linejoin:round;stroke-miterlimit:4;stroke-dashoffset:0"
         inkscape:connector-curvature="0"
         id="path3176"
         d="M -58.451352,357.20927 C 131.99608,275.18492 461.03645,297.81233 634.51329,410.94944 697.6815,332.69627 675.99687,144.13447 603.40062,122.44984 653.36955,-68.940373 553.43175,-478.1195 795.73363,-491.31884 892.843,-387.60982 953.18272,-617.65523 798.56206,-562.0295 478.97932,-531.25991 590.40635,-133.44665 515.71934,102.65086 247.96162,44.196707 -200.81548,172.41874 -109.36303,244.07221 156.50912,172.41874 484.6067,86.623117 603.40062,331.75346 471.40736,199.7602 -16.967702,223.33042 -58.451352,357.20927 Z"
         stroke-miterlimit="4" />
      <g
         style="fill:#ffff00"
         id="g3249">
        <path
           style="fill:#ffff00;fill-rule:nonzero;stroke-width:30;stroke-linecap:round;stroke-linejoin:round;stroke-miterlimit:4;stroke-dashoffset:0"
           inkscape:connector-curvature="0"
           d="M -38.652362,113.96458 C -250.78441,-64.226343 -729.23732,-583.53835 535.51835,-330.09847 -395.0342,-381.01015 -273.41176,-301.81423 -38.652362,113.96458 Z"
           id="path3202"
           stroke-miterlimit="4" />
        <path
           style="fill:#ffff00;fill-rule:nonzero;stroke-width:30;stroke-linecap:round;stroke-linejoin:round;stroke-miterlimit:4;stroke-dashoffset:0"
           inkscape:connector-curvature="0"
           d="m -197.04466,-168.87851 c 207.418398,-68.82502 457.263,-95.22301 684.48001,-50.91102 -214.01801,-15.08499 -461.976712,37.71201 -661.85201,104.65101 -7.543,-17.913 -15.08501,-35.82599 -22.628,-53.73999 z"
           id="path3204"
           stroke-miterlimit="4" />
        <path
           style="fill:#ffff00;fill-rule:nonzero;stroke-width:30;stroke-linecap:round;stroke-linejoin:round;stroke-miterlimit:4;stroke-dashoffset:0"
           inkscape:connector-curvature="0"
           d="m -129.16166,-38.770523 c 10.371,19.799 20.741,39.59801 31.112298,59.397 140.4786,-90.5097 334.697702,-130.107997 534.572692,-118.794 -148.021,-76.366997 -335.63999,-48.083007 -565.68499,59.397 z"
           id="path3206"
           stroke-miterlimit="4" />
        <path
           style="fill:#ffff00;fill-rule:nonzero;stroke-width:30;stroke-linecap:round;stroke-linejoin:round;stroke-miterlimit:4;stroke-dashoffset:0"
           inkscape:connector-curvature="0"
           d="m -185.73056,-313.12792 c 27.34146,-12.25653 54.68291,-24.51303 82.02438,-36.76956 C 15.087748,-206.59051 77.313168,-57.626673 116.91113,96.993997 41.486398,-48.198583 -42.423602,-179.24905 -185.73056,-313.12792 Z"
           id="path3208"
           stroke-miterlimit="4" />
        <path
           style="fill:#ffff00;fill-rule:nonzero;stroke-width:30;stroke-linecap:round;stroke-linejoin:round;stroke-miterlimit:4;stroke-dashoffset:0"
           inkscape:connector-curvature="0"
           d="m -16.024942,-364.03963 c 23.57023,-0.94281 47.14045,-1.88559 70.71068,-2.8284 C 162.16597,-236.76038 207.42077,-103.8243 207.42077,31.940187 166.88,-100.05309 103.71179,-232.04635 -16.024942,-364.03963 Z"
           id="path3210"
           stroke-miterlimit="4" />
        <path
           style="fill:#ffff00;fill-rule:nonzero;stroke-width:30;stroke-linecap:round;stroke-linejoin:round;stroke-miterlimit:4;stroke-dashoffset:0"
           inkscape:connector-curvature="0"
           d="m 181.96495,-361.2112 c 22.62744,0.94281 45.25485,1.88562 67.88226,2.82843 43.3692,112.1943 75.42471,218.73172 70.71066,336.582847 C 305.47294,-140.59386 250.79002,-245.24567 181.96495,-361.2112 Z"
           id="path3212"
           stroke-miterlimit="4" />
      </g>
      <path
         style="fill:#ffff00;fill-rule:nonzero;stroke:#fffdff;stroke-width:9.1273737;stroke-linecap:round;stroke-linejoin:round;stroke-miterlimit:4;stroke-dashoffset:0"
         inkscape:connector-curvature="0"
         id="path3234"
         d="m 4.283668,308.81443 c -17.01834,0.24384 -32.8954,5.08643 -45.625,14.96875 -37.03154,28.74842 -33.57512,89.26081 7.71875,135.09375 41.2939,45.83289 104.87471,59.71717 141.906242,30.96875 37.03152,-28.74847 33.57516,-89.29211 -7.71875,-135.125 C 73.465798,324.6428 36.773238,308.34892 4.283668,308.81443 Z m 29.125,57.40625 c 14.22697,-0.2196 30.28973,7.4986 42.15625,21.6875 18.08232,21.62116 19.62213,50.15698 3.40625,63.71875 -16.21587,13.56171 -44.07392,7.02741 -62.15625,-14.59375 -18.08233,-21.62121 -19.59087,-50.18829 -3.375,-63.75 5.57422,-4.66186 12.51654,-6.94751 19.96875,-7.0625 z"
         stroke-miterlimit="4" />
      <path
         style="fill:#ffff00;fill-rule:nonzero;stroke:#fffdff;stroke-width:9.1273737;stroke-linecap:round;stroke-linejoin:round;stroke-miterlimit:4;stroke-dashoffset:0"
         inkscape:connector-curvature="0"
         id="path3243"
         d="m 509.15928,308.81443 c -17.01837,0.24384 -32.89544,5.08643 -45.625,14.96875 -37.03155,28.74842 -33.57513,89.26081 7.71875,135.09375 41.29389,45.83289 104.8747,59.71717 141.90625,30.96875 37.0315,-28.74847 33.57514,-89.29211 -7.71875,-135.125 -27.09912,-30.07788 -63.79168,-46.37176 -96.28125,-45.90625 z m 29.125,57.40625 c 14.22693,-0.2196 30.28968,7.4986 42.15625,21.6875 18.08228,21.62116 19.62214,50.15698 3.40625,63.71875 -16.21588,13.56171 -44.07391,7.02741 -62.15625,-14.59375 -18.08233,-21.62121 -19.59088,-50.18829 -3.375,-63.75 5.57422,-4.66186 12.51655,-6.94751 19.96875,-7.0625 z"
         stroke-miterlimit="4" />
    </g>
  </g>
</svg>
